<svg xmlns="http://www.w3.org/2000/svg" width="48" height="38.74" viewBox="0 0 48 38.74">
    <path d="M45.6 21.77H8.194l12.873 12.874a2.4 2.4 0 1 1-3.394 3.394L.7 21.067a2.422 2.422 0 0 1-.3-.365c-.04-.061-.068-.126-.1-.189a2.4 2.4 0 0 1-.116-.229 2.134 2.134 0 0 1-.077-.249c-.02-.067-.046-.13-.059-.2A2.4 2.4 0 0 1 0 19.37v-.005a2.419 2.419 0 0 1 .047-.464c.014-.072.041-.139.062-.209a2.229 2.229 0 0 1 .074-.238 2.485 2.485 0 0 1 .125-.238c.032-.059.058-.119.1-.175a2.365 2.365 0 0 1 .3-.368L17.674.703a2.4 2.4 0 1 1 3.394 3.394L8.194 16.97H45.6a2.4 2.4 0 1 1 0 4.8z"/>
</svg>
