<svg xmlns="http://www.w3.org/2000/svg" width="452.089" height="451.515" viewBox="0 0 452.089 451.515">
    <defs>
        <style>
            .prefix__cls-1{fill:#fdfdfd}.prefix__cls-2{fill:#4d5771}.prefix__cls-4{fill:#b3bdd5}.prefix__cls-5{fill:#394153}.prefix__cls-6{fill:#fc92ab}
        </style>
    </defs>
    <g id="prefix___25-512" data-name="25-512" transform="translate(.011)">
        <path id="prefix__Path_23" d="M211.378 120.072Q164.942 93.34 118.6 66.516c-8.268-4.777-11.758-4.593-18.648 1.837-6.063 1.929-7.9 4.409-7.9 10.656 0 6.614.184 13.136-.092 19.75-.184 3.491.919 5.42 4.042 7.165q96.317 55.393 192.543 111.061 20.669 11.85 41.338 23.517c7.716-1.562 9.921-4.134 9.921-11.3 0-5.787.092-11.666 0-17.454-.184-11.758-5.052-20.577-15.617-26.548-22.965-12.861-45.564-26.272-68.345-39.409-11.391-6.522-22.874-12.953-34.264-19.383 0-6.982.092-13.963.092-20.945 2.572-1.562 5.144-3.307 7.808-4.777a6.477 6.477 0 0 0 3.031-3.766c5.328-16.076 10.748-32.152 16.076-48.227.643-1.837 1.01-3.491-.459-5.144-5.971-7.349-11.666-14.882-20.669-19.015-3.031-1.378-5.6-2.572-8.727-.827 0-6.247-.184-12.493-.092-18.74C218.727 1.2 216.523.1 213.491.1c-2.94 0-5.052.919-4.961 4.869.276 8.727 0 17.362-.092 26.089-6.155 1.929-11.3 5.787-16.719 9.186a3.914 3.914 0 0 0-1.286 1.837c-3.491 8.268-6.89 16.627-10.472 24.895a6.454 6.454 0 0 0 .459 6.063c4.5 7.808 9.462 15.433 13.32 23.517 3.766 7.9 10.84 10.564 17.913 13.687-.091 3.215-.183 6.522-.275 9.829zM.372 284.78a25.563 25.563 0 0 1 0 4.593c-1.47 8.268 2.2 12.861 9.37 17.086Q129.621 376.6 249.134 447.284c9.37 5.512 18.189 5.7 27.65.276 54.29-31.233 108.489-62.466 163.239-92.964 9.829-5.512 13.32-11.85 11.666-22.231 1.1-5.328-.827-8.911-5.6-11.758Q324 248.954 201.917 176.934c-8.359-4.961-16.719-5.052-25.17-.184-5.512 3.215-11.207 6.338-16.719 9.462-19.015 10.932-38.123 21.863-57.138 32.7-32.335 18.464-64.579 36.928-97.006 55.3C1.566 276.7-.271 280 .372 284.78z" class="prefix__cls-1" data-name="Path 23" transform="translate(-.005 -.008)"/>
        <path id="prefix__Path_24" d="M174.1 201.643c5.6-3.123 11.207-6.247 16.719-9.462 8.451-4.869 16.811-4.777 25.17.184q122.222 71.79 244.261 143.58c4.777 2.848 6.706 6.43 5.6 11.758a34.26 34.26 0 0 0-3.674 1.837c-6.8 3.766-13.228 8.176-20.485 11.023q-36.928-21.771-73.765-43.634L177.223 204.491c-1.286-.643-3.123-.827-3.123-2.848zm246.006 124.932c-2.756.276-6.614.367-7.716 4.593-.735 2.572 3.858 5.236 8.359 5.236 4.226 0 8.359-2.388 8.451-4.869 0-2.571-3.95-4.868-9.094-4.96zm-18.74-11.115c-2.664.459-6.706.184-7.625 4.685-.551 2.664 3.307 5.052 7.808 5.328s8.635-2.021 8.819-4.777c.185-2.939-3.398-5.144-9.002-5.236zm38.766 31.968c2.848-.551 6.614-.643 7.533-4.777.551-2.572-3.491-4.961-7.992-5.052-4.869-.092-8.819 2.113-8.727 4.869 0 2.572 4.317 5.052 9.186 4.96z" class="prefix__cls-2" data-name="Path 24" transform="translate(-14.169 -15.347)"/>
        <path id="prefix__Path_25" d="M338.121 246.549c-13.779-7.808-27.65-15.617-41.338-23.517Q200.466 167.5 104.24 111.971c-3.123-1.837-4.226-3.674-4.042-7.165.276-6.522.092-13.136.092-19.75 0-6.247 1.837-8.727 7.9-10.656a20.954 20.954 0 0 1 6.063 1.837c18.74 10.84 37.388 21.679 56.128 32.427 14.606 8.451 29.3 16.719 44 25.17-1.745 3.307-3.766 6.522-4.685 10.289-2.3 8.727-.735 12.861 6.338 17.27.276.276.643.459.919.735l-.092-.092c1.837 4.134 5.42 6.614 8.635 5.42 3.583-1.378 4.042-4.134 2.756-7.441-.276-3.858-1.654-7.992-5.328-8.543-5.052-.827-4.042-3.215-3.215-6.247a12.725 12.725 0 0 1 3.583-6.155c5.787 4.134 12.309 7.257 18.464 10.84 26.916 15.984 54.107 31.325 81.3 46.941 10.1 5.787 15.8 13.871 15.249 26-.552 7.714-.184 15.706-.184 23.698zm-50.524-48.5c.092-3.583-3.95-8.911-7.257-8.911-2.664 0-3.674 1.745-3.766 4.226 0 4.134 4.042 9.37 7.257 9.462 2.755-.095 3.769-1.748 3.769-4.78zm36.469 21.128c.092-4.5-4.226-10.013-7.716-9.829-2.48.184-3.215 1.929-3.215 4.134-.092 4.318 3.583 9.37 7.073 9.554 2.755.088 3.582-1.836 3.858-3.862zm-18.281-10.567c-.092-4.5-4.226-9.829-7.441-9.737-2.756.092-3.583 1.929-3.491 4.318 0 4.226 3.95 9.278 7.349 9.278 2.756-.001 3.398-2.022 3.583-3.859z" data-name="Path 25" transform="translate(-8.154 -6.055)" style="fill:#eb5e71"/>
        <path id="prefix__Path_26" d="M159.953 202.8c0 2.021 1.837 2.2 3.031 2.94L353.69 318.178q36.928 21.771 73.765 43.634c-.735.551-1.378 1.194-2.113 1.654q-75.235 42.854-150.653 85.891c-7.992 4.5-16.168 4.042-23.976-.551Q141.994 384.87 33.275 320.659C22.252 314.228 11.32 307.706.389 301.184c-.643-4.777 1.194-7.992 5.512-10.472q48.5-27.559 97.006-55.3c19.015-10.841 38.031-21.772 57.046-32.612zM11.78 297.418c1.929 1.286 3.215 2.2 4.5 2.94l111.061 65.314q66.141 39 132.281 78.083c2.664 1.562 4.593 1.562 7.073.092 6.89-4.042 13.779-7.9 20.669-11.85q50.57-28.936 101.14-57.781c7.073-4.042 14.147-8.176 21.679-12.493-1.194-.827-1.837-1.286-2.388-1.654q-53.464-31.555-107.019-63.109-46.161-27.283-92.413-54.474-22.874-13.5-45.839-27.007c-2.021-1.194-3.858-2.2-6.338-.735-6.522 3.95-13.228 7.625-19.842 11.483Q89.219 253.232 42 280.148c-9.919 5.603-19.656 11.207-30.22 17.27z" class="prefix__cls-4" data-name="Path 26" transform="translate(-.022 -16.504)"/>
        <path id="prefix__Path_27" d="M.367 310c10.932 6.522 21.955 12.953 32.887 19.475L250.69 457.622c7.808 4.593 15.984 5.052 23.976.551q75.51-42.854 150.745-85.983c.735-.459 1.378-1.1 2.113-1.654 7.257-2.848 13.687-7.257 20.485-11.023 1.194-.643 2.48-1.194 3.674-1.837 1.654 10.38-1.837 16.719-11.666 22.231-54.75 30.406-108.948 61.731-163.33 92.872-9.462 5.42-18.281 5.236-27.65-.276Q129.57 401.816 9.736 331.588C2.571 327.454-1.1 322.861.275 314.5a24.574 24.574 0 0 0 .092-4.5z" class="prefix__cls-5" data-name="Path 27" transform="translate(0 -25.228)"/>
        <path id="prefix__Path_28" d="M227.637 112.055c-7.073-3.123-14.147-5.787-17.913-13.687-3.858-8.085-8.724-15.709-13.324-23.517a5.985 5.985 0 0 1-.459-6.063c3.583-8.268 6.982-16.627 10.472-24.895a4.438 4.438 0 0 1 1.286-1.837c5.42-3.4 10.564-7.257 16.719-9.186a18.067 18.067 0 0 1 .276 2.2c-.276 3.491 1.562 5.052 4.869 4.961 3.491-.092 5.236-1.745 5.052-5.42-.184-3.031.092-6.063.092-9.094 3.123-1.745 5.7-.643 8.727.827 9 4.134 14.7 11.666 20.669 19.015 1.378 1.745 1.01 3.4.459 5.144q-8.13 24.114-16.076 48.227a6.477 6.477 0 0 1-3.031 3.766c-2.664 1.47-5.236 3.123-7.808 4.777-3.855.827-6.335 4.047-10.01 4.782z" class="prefix__cls-4" data-name="Path 28" transform="translate(-15.897 -2.004)"/>
        <path id="prefix__Path_29" d="M349.019 251.684c0-7.992-.276-15.892.092-23.884.551-12.126-5.236-20.21-15.249-26-27.1-15.525-54.382-30.957-81.3-46.941-6.155-3.674-12.677-6.706-18.464-10.84 1.562-2.848 4.777-3.858 6.522-6.522 11.391 6.43 22.874 12.861 34.264 19.383 22.782 13.136 45.472 26.456 68.345 39.409 10.564 5.971 15.433 14.79 15.617 26.548.092 5.787 0 11.666 0 17.454.094 7.26-2.202 9.832-9.827 11.393z" class="prefix__cls-6" data-name="Path 29" transform="translate(-19.052 -11.19)"/>
        <path id="prefix__Path_30" d="M214.992 133.378c-14.7-8.359-29.3-16.719-44-25.17q-28.11-16.122-56.128-32.427a20.132 20.132 0 0 0-6.063-1.837c6.89-6.43 10.38-6.614 18.648-1.837q46.3 26.87 92.78 53.555c.091 3.858-3.583 5.052-5.237 7.716z" class="prefix__cls-6" data-name="Path 30" transform="translate(-8.855 -5.598)"/>
        <path id="prefix__Path_31" d="M223.906 137.122c1.654-2.664 5.328-3.858 5.236-7.625.092-3.307.184-6.614.367-10.013 3.674-.735 6.247-3.95 9.921-4.685 0 6.982-.092 13.963-.092 20.945-1.745 2.572-5.052 3.674-6.522 6.522a14.908 14.908 0 0 0-3.583 6.155c-.827 3.031-1.837 5.42 3.215 6.247 3.674.551 5.052 4.777 5.328 8.543-3.491 2.48-7.165 3.583-11.3 2.021l.092.092c-.276-.276-.643-.459-.919-.735-7.073-4.409-8.635-8.543-6.338-17.27.828-3.674 2.849-6.89 4.595-10.197z" class="prefix__cls-5" data-name="Path 31" transform="translate(-17.769 -9.343)"/>
        <path id="prefix__Path_32" d="M237.289 23.609c-.092 3.031-.276 6.063-.092 9.094.276 3.766-1.562 5.328-5.052 5.42-3.307.092-5.144-1.47-4.869-4.961a9.059 9.059 0 0 0-.276-2.2c.092-8.727.367-17.362.092-26.089C227 .919 229.113 0 232.052 0c3.031 0 5.236 1.1 5.144 4.869-.096 6.246.093 12.493.093 18.74z" class="prefix__cls-2" data-name="Path 32" transform="translate(-18.474)"/>
        <path id="prefix__Path_33" d="M441.209 338.8c5.144.092 9.094 2.388 9.094 4.961 0 2.48-4.134 4.869-8.451 4.869-4.593 0-9.094-2.664-8.359-5.236 1.107-4.227 4.96-4.318 7.716-4.594z" class="prefix__cls-4" data-name="Path 33" transform="translate(-35.273 -27.572)"/>
        <path id="prefix__Path_34" d="M420.82 326.7c5.6 0 9.186 2.3 9 5.236-.184 2.756-4.318 4.961-8.819 4.777-4.593-.276-8.359-2.664-7.808-5.328.921-4.409 4.963-4.226 7.627-4.685z" class="prefix__cls-6" data-name="Path 34" transform="translate(-33.623 -26.587)"/>
        <path id="prefix__Path_35" d="M462.878 360.621c-4.961.092-9.186-2.388-9.278-5.052-.092-2.756 3.95-4.961 8.727-4.869 4.593.092 8.635 2.48 7.992 5.052-.827 4.226-4.593 4.318-7.441 4.869z" class="prefix__cls-6" data-name="Path 35" transform="translate(-36.915 -28.54)"/>
        <path id="prefix__Path_36" d="M303.231 208.2c0 3.031-1.01 4.685-3.674 4.685-3.307 0-7.349-5.328-7.257-9.462 0-2.48 1.1-4.226 3.766-4.226 3.215.095 7.165 5.423 7.165 9.003z" class="prefix__cls-1" data-name="Path 36" transform="translate(-23.788 -16.211)"/>
        <path id="prefix__Path_37" d="M342.931 231.121c-.276 2.021-1.1 3.95-3.858 3.766-3.491-.184-7.165-5.144-7.073-9.554 0-2.2.735-3.95 3.215-4.134 3.399-.091 7.808 5.421 7.716 9.922z" class="prefix__cls-1" data-name="Path 37" transform="translate(-27.019 -18.001)"/>
        <path id="prefix__Path_38" d="M323.032 219.637c-.184 1.929-.827 3.858-3.583 3.858-3.4 0-7.349-5.052-7.349-9.278 0-2.48.827-4.226 3.491-4.318 3.215-.091 7.441 5.237 7.441 9.738z" class="prefix__cls-1" data-name="Path 38" transform="translate(-25.4 -17.082)"/>
        <path id="prefix__Path_39" d="M227.1 169.521c4.134 1.654 7.9.459 11.3-2.021 1.286 3.307.827 6.063-2.756 7.441-3.032 1.194-6.707-1.286-8.544-5.42z" class="prefix__cls-1" data-name="Path 39" transform="translate(-18.483 -13.631)"/>
        <path id="prefix__Path_40" d="M226.2 169c.276.276.643.459.919.735a6.435 6.435 0 0 0-.919-.735z" class="prefix__cls-1" data-name="Path 40" transform="translate(-18.409 -13.753)"/>
        <path id="prefix__Path_41" d="M12.8 298.411c10.564-6.063 20.393-11.666 30.131-17.27q47.125-27.007 94.342-53.923c6.614-3.766 13.32-7.533 19.842-11.483 2.48-1.47 4.318-.459 6.338.735q22.874 13.5 45.839 27.007 46.161 27.283 92.413 54.474 53.464 31.555 107.019 63.109c.643.367 1.194.827 2.388 1.654-7.533 4.318-14.514 8.451-21.679 12.493q-50.57 28.936-101.14 57.781c-6.89 3.95-13.871 7.808-20.669 11.85-2.48 1.47-4.409 1.47-7.073-.092q-66-39.133-132.281-78.083-55.392-32.656-110.97-65.312c-1.285-.735-2.571-1.651-4.5-2.94zm238.014 125.943c3.215.459 5.879-.919 8.543-2.48 6.522-3.858 13.136-7.716 19.75-11.575 1.837-1.1 4.134-1.837 4.134-4.409s-2.113-3.583-3.95-4.593c-6.982-4.042-14.147-7.808-21.036-12.126-5.052-3.123-9.737-3.031-14.606-.184-7.533 4.409-15.065 8.727-22.6 13.136-4.134 2.48-4.042 4.869.184 7.349 7.441 4.409 15.065 8.727 22.6 13.136a11.516 11.516 0 0 0 6.981 1.746zM85.1 326.888a9.392 9.392 0 0 0 6.338-1.562c7.533-4.409 15.065-8.727 22.6-13.136 4.409-2.572 4.226-5.512-.184-8.084-6.89-3.95-13.963-7.625-20.577-11.942-5.879-3.858-11.3-3.583-17.086 0-6.8 4.134-13.687 8.084-20.577 12.034-4.226 2.48-4.318 5.42-.184 7.9 7.441 4.409 15.065 8.727 22.6 13.136a10.856 10.856 0 0 0 7.07 1.654zm82.216 48.595a11.381 11.381 0 0 0 6.706-1.378c7.9-4.593 15.892-9.094 23.7-13.779 3.491-2.113 3.583-4.593.184-6.614-7.992-4.777-16.076-9.37-24.16-13.963-3.674-2.021-7.625-2.48-11.391-.367-7.992 4.5-15.892 9.186-23.7 13.871-4.593 2.848-4.409 5.052.367 7.808 6.063 3.491 12.126 7.165 18.281 10.472 3.119 1.745 5.967 4.501 10.009 3.95zm7.716-56.311c12.585 7.349 24.895 14.514 37.3 21.679q35.964 20.669 71.836 41.43c9.094 5.236 18.372 10.38 27.375 15.8 3.215 1.929 5.42-.092 6.614-1.837 1.378-1.929-1.562-2.388-2.848-3.123q-24.114-14.055-48.411-27.926c-27.283-15.708-54.566-31.417-81.665-47.4-3.958-2.39-6.806-1.655-10.205 1.377zm159.2 67.61c-.092-1.1-1.1-1.286-1.837-1.654l-35.275-20.393q-37.617-21.771-75.327-43.451c-7.808-4.5-15.708-8.819-23.425-13.5-3.215-1.929-5.512.276-6.614 1.929-1.286 1.929 1.837 2.388 3.215 3.215 5.6 3.4 11.3 6.614 16.994 9.921q36.928 21.358 73.765 42.624c13.779 7.9 27.467 15.892 41.246 23.792 1.739 1.008 7.159-.738 7.251-2.483zm15.8-9.186c-6.8-3.95-13.32-7.716-19.75-11.483q-37.9-21.913-75.702-43.726c-13.5-7.808-26.916-15.617-40.419-23.333-1.929-1.1-7.165-.092-7.533 1.745-.459 2.48 2.2 2.48 3.583 3.307q34.035 19.842 68.161 39.5c20.485 11.85 40.97 23.609 61.364 35.551 3.859 2.113 6.89 1.838 10.289-1.557zm-155.345-89.749c-1.194-.827-2.3-1.654-3.583-2.48-11.391-6.614-22.69-13.228-34.081-19.75-7.165-4.134-14.33-8.176-21.5-12.309-3.215-1.837-5.787.276-6.982 2.3s2.021 2.388 3.4 3.307c8.268 4.869 16.627 9.737 24.986 14.514 10.013 5.787 20.21 11.483 30.131 17.454 2.388 1.47 3.674.092 5.328-.827.739-.464 2.025-.556 2.301-2.209zm-76.337-26.364c-2.113.919-4.869 1.378-5.512 3.4-.643 1.929 2.113 2.113 3.491 2.94 6.522 3.95 13.136 7.716 19.842 11.575 11.666 6.706 23.333 13.32 35 20.118a5.382 5.382 0 0 0 7.625-1.745c1.194-2.021-2.2-2.756-3.674-3.583-17.546-10.289-35.183-20.393-52.729-30.59a34.361 34.361 0 0 0-4.044-2.115zm46.115 44.277c-2.021-1.286-3.858-2.388-5.7-3.4-17.175-9.92-34.445-19.66-51.439-29.76-4.409-2.664-7.073-1.286-10.564 1.745 19.107 11.023 37.939 21.771 56.5 32.795 4.22 2.386 7.527 2.754 11.202-1.38z" class="prefix__cls-1" data-name="Path 41" transform="translate(-1.043 -17.497)"/>
        <path id="prefix__Path_42" d="M268.985 439.568a11.247 11.247 0 0 1-7.073-1.837c-7.533-4.409-15.065-8.635-22.6-13.136-4.226-2.48-4.318-4.961-.184-7.349 7.441-4.409 15.065-8.727 22.6-13.136 4.869-2.848 9.554-2.94 14.606.184 6.89 4.317 14.055 8.084 21.036 12.126 1.837 1.1 3.95 2.113 3.95 4.593 0 2.664-2.3 3.4-4.134 4.409-6.614 3.858-13.228 7.624-19.75 11.575-2.571 1.561-5.236 3.031-8.451 2.571z" class="prefix__cls-4" data-name="Path 42" transform="translate(-19.214 -32.712)"/>
        <path id="prefix__Path_43" d="M88.6 333.483a11.122 11.122 0 0 1-7.165-1.654c-7.533-4.409-15.065-8.727-22.6-13.136-4.134-2.48-3.95-5.42.184-7.9 6.89-4.042 13.779-7.9 20.577-12.034 5.787-3.491 11.207-3.766 17.086 0 6.706 4.317 13.687 7.992 20.577 11.942 4.5 2.572 4.593 5.512.184 8.084-7.533 4.409-15.065 8.727-22.6 13.136a9.031 9.031 0 0 1-6.243 1.562z" class="prefix__cls-4" data-name="Path 43" transform="translate(-4.544 -24.092)"/>
        <path id="prefix__Path_44" d="M178.171 386.385c-4.042.643-6.8-2.2-9.921-3.858-6.155-3.307-12.126-6.982-18.281-10.472-4.777-2.756-5.052-5.052-.367-7.808 7.808-4.777 15.708-9.37 23.7-13.871 3.766-2.113 7.716-1.745 11.391.367 8.084 4.593 16.168 9.186 24.16 13.963 3.4 2.021 3.307 4.5-.184 6.614-7.808 4.685-15.8 9.186-23.7 13.779a12.536 12.536 0 0 1-6.798 1.286z" class="prefix__cls-6" data-name="Path 44" transform="translate(-11.902 -28.399)"/>
        <path id="prefix__Path_45" d="M189.4 328.154c3.4-3.031 6.155-3.766 10.38-1.286 27.1 15.984 54.382 31.6 81.665 47.4q24.252 13.917 48.411 27.926c1.286.735 4.226 1.194 2.848 3.123-1.286 1.745-3.4 3.766-6.614 1.837-9-5.42-18.281-10.564-27.375-15.8q-35.964-20.669-71.836-41.43c-12.493-7.256-24.894-14.424-37.479-21.77z" class="prefix__cls-4" data-name="Path 45" transform="translate(-15.415 -26.479)"/>
        <path id="prefix__Path_46" d="M350.037 394.925c-.092 1.745-5.512 3.491-7.441 2.388-13.779-7.9-27.467-15.892-41.246-23.792q-36.928-21.358-73.765-42.624c-5.7-3.307-11.391-6.522-16.994-9.921-1.378-.827-4.409-1.286-3.215-3.215 1.1-1.745 3.491-3.858 6.614-1.929 7.716 4.685 15.617 9 23.425 13.5q37.617 21.771 75.327 43.451l35.275 20.393c.826.463 1.928.647 2.02 1.749z" class="prefix__cls-4" data-name="Path 46" transform="translate(-16.855 -25.64)"/>
        <path id="prefix__Path_47" d="M367.2 384.993c-3.4 3.4-6.43 3.674-10.2 1.47-20.393-11.942-40.97-23.7-61.364-35.551-22.69-13.136-45.472-26.273-68.161-39.5-1.378-.827-4.042-.827-3.583-3.307.367-1.837 5.512-2.848 7.533-1.745 13.5 7.808 26.916 15.617 40.419 23.333q37.893 21.909 75.694 43.726c6.434 3.858 12.862 7.624 19.662 11.574z" class="prefix__cls-4" data-name="Path 47" transform="translate(-18.217 -24.895)"/>
        <path id="prefix__Path_48" d="M204.909 291.186c-.367 1.562-1.562 1.745-2.388 2.3-1.654 1.01-2.94 2.3-5.328.827-9.921-5.971-20.118-11.667-30.131-17.454-8.359-4.777-16.627-9.645-24.986-14.514-1.378-.827-4.593-1.286-3.4-3.307s3.766-4.134 6.982-2.3c7.165 4.134 14.33 8.176 21.5 12.31 11.391 6.522 22.782 13.136 34.081 19.75a42.592 42.592 0 0 1 3.67 2.388z" class="prefix__cls-4" data-name="Path 48" transform="translate(-11.265 -20.836)"/>
        <path id="prefix__Path_49" d="M127.2 265.6a40.143 40.143 0 0 1 3.95 2.021c17.637 10.2 35.183 20.3 52.729 30.59 1.47.827 4.961 1.562 3.674 3.583a5.332 5.332 0 0 1-7.625 1.745c-11.666-6.8-23.333-13.412-35-20.118q-9.921-5.65-19.842-11.575c-1.286-.827-4.042-1.01-3.491-2.94.734-1.928 3.398-2.387 5.605-3.306z" class="prefix__cls-4" data-name="Path 49" transform="translate(-9.89 -21.615)"/>
        <path id="prefix__Path_50" d="M171.91 310.728c-3.674 4.226-6.89 3.858-11.115 1.286-18.556-11.023-37.388-21.771-56.5-32.795 3.4-3.031 6.155-4.409 10.564-1.745 16.994 10.2 34.264 19.934 51.443 29.763 1.75 1.103 3.498 2.205 5.608 3.491z" class="prefix__cls-4" data-name="Path 50" transform="translate(-8.489 -22.466)"/>
    </g>
</svg>
