<svg xmlns="http://www.w3.org/2000/svg" width="101" height="84" viewBox="0 0 101 84">
  <g id="Group_13054" data-name="Group 13054" transform="translate(-665 -443)">
    <g id="Group_13052" data-name="Group 13052" transform="translate(84 -9)">
      <g id="Group_13049" data-name="Group 13049" transform="translate(512 -26)">
        <path id="Path_55" data-name="Path 55" d="M6,0H95a6,6,0,0,1,6,6V78a6,6,0,0,1-6,6H6a6,6,0,0,1-6-6V6A6,6,0,0,1,6,0Z" transform="translate(69 478)" fill="#efefef"/>
        <path id="Rectangle_17" data-name="Rectangle 17" d="M6,0H95a6,6,0,0,1,6,6V25a0,0,0,0,1,0,0H0a0,0,0,0,1,0,0V6A6,6,0,0,1,6,0Z" transform="translate(69 478)" fill="#424242"/>
      </g>
      <g id="Group_13051" data-name="Group 13051" transform="translate(0.5)">
        <rect id="Rectangle_18" data-name="Rectangle 18" width="12" height="6" transform="translate(625.5 458)" fill="#e6e6e6"/>
        <g id="Group_13050" data-name="Group 13050" transform="translate(0 7)">
          <line id="Line_7" data-name="Line 7" x2="8" transform="translate(607.5 463.5)" fill="none" stroke="#e6e6e6" stroke-width="1"/>
          <line id="Line_7-2" data-name="Line 7" x2="8" transform="translate(617.5 463.5)" fill="none" stroke="#e6e6e6" stroke-width="1"/>
          <line id="Line_7-3" data-name="Line 7" x2="8" transform="translate(627.5 463.5)" fill="none" stroke="#e6e6e6" stroke-width="1"/>
          <line id="Line_7-4" data-name="Line 7" x2="8" transform="translate(637.5 463.5)" fill="none" stroke="#e6e6e6" stroke-width="1"/>
          <line id="Line_7-5" data-name="Line 7" x2="8" transform="translate(647.5 463.5)" fill="none" stroke="#e6e6e6" stroke-width="1"/>
        </g>
      </g>
    </g>
  </g>
</svg>
