<svg xmlns="http://www.w3.org/2000/svg" width="152.985" height="176.007" viewBox="0 0 152.985 176.007">
    <defs>
        <style>
            .prefix__cls-1{fill:#df4d4d}
        </style>
    </defs>
    <g id="prefix__not_found_user" data-name="not found user" transform="translate(-41.981 -6.997)">
        <path id="prefix__Path_705" d="M123.26 92.942a43.007 43.007 0 0 0-13.225-4.379c-22.666-3.668-43.963 7.22-55.185 28.126a60.894 60.894 0 0 0-7.375 28.481c-.028 2.256-1.088 3.573-2.827 3.52-1.686-.053-2.735-1.338-2.665-3.478.715-22.479 9.554-40.738 28.407-53.5 4.4-2.982 9.5-4.939 14.2-7.325A40.559 40.559 0 0 1 63.4 32.92c6-16.055 22.413-26.72 39.76-25.876a41.1 41.1 0 0 1 36.968 29.52c4.773 17.206-2.622 39.024-22.662 48.025 3.08 1.352 6.276 2.5 9.209 4.119a9.872 9.872 0 0 0 7.054 1.1 35.385 35.385 0 0 1 32.723 57.832c-.232.282-.468.567-.686.859a3.433 3.433 0 0 0-.222.489c.95 1 1.947 2.038 2.735 2.862 1.661-.44 3.115-1.158 4.537-1.1a5.439 5.439 0 0 1 3.309 1.64c5.784 5.991 11.469 12.077 17.15 18.16a5.476 5.476 0 0 1 0 7.917c-.954 1.035-1.9 2.084-2.946 3.024a5.151 5.151 0 0 1-7.54-.26c-5.681-6.005-11.314-12.053-16.985-18.069a5.049 5.049 0 0 1-1.3-5.414 2.119 2.119 0 0 0-.715-2.661c-.753-.711-1.443-1.489-2.151-2.232-18.213 13.873-41.344 7.033-51.693-8.6-10.069-15.201-7.581-39.94 13.315-51.313zm-22.093-80.509a34.927 34.927 0 1 0 34.916 34.86 34.924 34.924 0 0 0-34.916-34.86zm38.341 82.261a29.99 29.99 0 1 0 29.977 30 29.993 29.993 0 0 0-29.977-29.999zm49.876 79.815c-5.731-6.086-11.395-12.106-17.132-18.2-.993 1.06-1.813 1.933-2.7 2.872 5.766 6.114 11.4 12.1 17.139 18.181.948-.997 1.733-1.832 2.694-2.853z" class="prefix__cls-1" data-name="Path 705"/>
        <path id="prefix__Path_706" d="M298.43 307.769v-1.651c0-3.668.028-3.707 3.668-4.594a4.209 4.209 0 1 0-5.048-4.819c-.056.3-.039.609-.067.912a2.807 2.807 0 0 1-2.77 2.827 2.865 2.865 0 0 1-2.735-3.073 9.76 9.76 0 0 1 17.924-5.315 9.607 9.607 0 0 1-3.911 14.017 2.241 2.241 0 0 0-1.556 2.626 15.59 15.59 0 0 1 0 2.749 2.738 2.738 0 0 1-5.474-.007c-.077-1.218-.014-2.446-.014-3.671z" class="prefix__cls-1" data-name="Path 706" transform="translate(-161.671 -181.862)"/>
        <path id="prefix__Path_707" d="M316.154 378.248a3.473 3.473 0 1 1-6.942-.218 3.473 3.473 0 0 1 6.942.218z" class="prefix__cls-1" data-name="Path 707" transform="translate(-173.161 -238.274)"/>
    </g>
</svg>
